# xmcd CD database file
#
# Track frame offsets:
#	150
#	19680
#	34915
#	51245
#	67768
#	82385
#	97900
#	113715
#	133430
#	151585
#	171793
#	187010
#
# Disc length: 2653 seconds
#
# Revision: 2
# Processed by: cddbd v1.5.1PL2 Copyright (c) Steve Scherf et al.
# Submitted via: CDex 1.51
#
DISCID=9c0a5b0c
DTITLE=Lisa Ono 小野麗莎 - NAIMA~meuanjo~ 我的天使
DYEAR=2004
DGENRE=Jazz
TTITLE0=OMINIRA 自由
TTITLE1=SARAH WU MASSA 日以繼夜
TTITLE2=MALAIKA 天使
TTITLE3=NKOSI SIKELEL 'IAFRICA 天佑非洲
TTITLE4=TAHITI YASMIN FILLIL 在茉莉花樹下
TTITLE5=LE MOUN I LI GHAROU MENNI 我的她
TTITLE6=MUSTAFA 慕司塔法
TTITLE7=USKUDAR 烏司庫達
TTITLE8=LABITA 搖籃曲
TTITLE9=NAIMA 寶寶
TTITLE10=LUZIR 閃爍光輝
TTITLE11=OXUM 水之魂
EXTD=YEAR: 2004
EXTT0=
EXTT1=
EXTT2=
EXTT3=
EXTT4=
EXTT5=
EXTT6=
EXTT7=
EXTT8=
EXTT9=
EXTT10=
EXTT11=
PLAYORDER=
